HIERARCHY
ROOT Hips
{
	OFFSET 0.000000 100.481300 0.000000
	CHANNELS 6 Xposition Yposition Zposition Xrotation Yrotation Zrotation
	JOINT Spine
	{
		OFFSET -0.279200 12.230698 -2.892100
		CHANNELS 3 Xrotation Yrotation Zrotation
		JOINT Spine1
		{
			OFFSET -0.325700 14.269203 -3.374200
			CHANNELS 3 Xrotation Yrotation Zrotation
			JOINT Spine2
			{
				OFFSET -0.372300 16.307602 -0.352600
				CHANNELS 3 Xrotation Yrotation Zrotation
				JOINT Neck
				{
					OFFSET -0.418800 17.814194 8.416900
					CHANNELS 3 Xrotation Yrotation Zrotation
					JOINT Head
					{
						OFFSET 0.000000 7.031097 3.806800
						CHANNELS 3 Xrotation Yrotation Zrotation
						JOINT HeadTop_End
						{
							OFFSET 0.000000 24.646606 12.978600
							CHANNELS 3 Xrotation Yrotation Zrotation
							End Site
							{
								OFFSET 0.000000 27.854965 0.000000
							}
						}
					}
				}
				JOINT LeftShoulder
				{
					OFFSET 16.952999 14.495407 -7.737500
					CHANNELS 3 Xrotation Yrotation Zrotation
					JOINT LeftArm
					{
						OFFSET 9.308998 -2.777710 0.208600
						CHANNELS 3 Xrotation Yrotation Zrotation
						JOINT LeftForeArm
						{
							OFFSET 29.972298 0.000000 0.000000
							CHANNELS 3 Xrotation Yrotation Zrotation
							JOINT LeftHand
							{
								OFFSET 26.026505 0.000000 0.000000
								CHANNELS 3 Xrotation Yrotation Zrotation
								JOINT LeftHandThumb1
								{
									OFFSET 12.240501 -7.147949 9.207150
									CHANNELS 3 Xrotation Yrotation Zrotation
									JOINT LeftHandThumb2
									{
										OFFSET 4.138618 -2.389435 2.389433
										CHANNELS 3 Xrotation Yrotation Zrotation
										JOINT LeftHandThumb3
										{
											OFFSET 2.726913 -1.574387 1.574386
											CHANNELS 3 Xrotation Yrotation Zrotation
											JOINT LeftHandThumb4
											{
												OFFSET 3.941010 -2.275345 2.275342
												CHANNELS 3 Xrotation Yrotation Zrotation
												End Site
												{
													OFFSET -0.005798 5.087799 0.009903
												}
											}
										}
									}
								}
								JOINT LeftHandIndex1
								{
									OFFSET 24.424698 -1.985611 5.953459
									CHANNELS 3 Xrotation Yrotation Zrotation
									JOINT LeftHandIndex2
									{
										OFFSET 6.426697 0.000000 0.000000
										CHANNELS 3 Xrotation Yrotation Zrotation
										JOINT LeftHandIndex3
										{
											OFFSET 5.337898 0.000000 0.000000
											CHANNELS 3 Xrotation Yrotation Zrotation
											JOINT LeftHandIndex4
											{
												OFFSET 4.409401 0.000000 0.000000
												CHANNELS 3 Xrotation Yrotation Zrotation
												End Site
												{
													OFFSET 0.000000 4.409363 0.014373
												}
											}
										}
									}
								}
								JOINT LeftHandMiddle1
								{
									OFFSET 23.810104 0.000000 0.000000
									CHANNELS 3 Xrotation Yrotation Zrotation
									JOINT LeftHandMiddle2
									{
										OFFSET 7.176498 0.000000 0.000000
										CHANNELS 3 Xrotation Yrotation Zrotation
										JOINT LeftHandMiddle3
										{
											OFFSET 6.774902 0.000000 0.000000
											CHANNELS 3 Xrotation Yrotation Zrotation
											JOINT LeftHandMiddle4
											{
												OFFSET 5.403328 0.000000 0.000000
												CHANNELS 3 Xrotation Yrotation Zrotation
												End Site
												{
													OFFSET -0.027702 5.403244 0.017414
												}
											}
										}
									}
								}
								JOINT LeftHandRing1
								{
									OFFSET 22.908401 -0.839279 -6.020567
									CHANNELS 3 Xrotation Yrotation Zrotation
									JOINT LeftHandRing2
									{
										OFFSET 6.337502 0.000000 0.000000
										CHANNELS 3 Xrotation Yrotation Zrotation
										JOINT LeftHandRing3
										{
											OFFSET 5.779297 0.000000 0.000000
											CHANNELS 3 Xrotation Yrotation Zrotation
											JOINT LeftHandRing4
											{
												OFFSET 4.965698 0.000000 0.000000
												CHANNELS 3 Xrotation Yrotation Zrotation
												End Site
												{
													OFFSET 0.000000 4.965668 0.016186
												}
											}
										}
									}
								}
								JOINT LeftHandPinky1
								{
									OFFSET 20.037003 -1.530319 -10.950146
									CHANNELS 3 Xrotation Yrotation Zrotation
									JOINT LeftHandPinky2
									{
										OFFSET 5.254700 0.000000 0.000000
										CHANNELS 3 Xrotation Yrotation Zrotation
										JOINT LeftHandPinky3
										{
											OFFSET 4.810204 0.000000 0.000000
											CHANNELS 3 Xrotation Yrotation Zrotation
											JOINT LeftHandPinky4
											{
												OFFSET 3.647202 0.000000 0.000000
												CHANNELS 3 Xrotation Yrotation Zrotation
												End Site
												{
													OFFSET 0.000000 3.647186 0.011889
												}
											}
										}
									}
								}
							}
						}
					}
				}
				JOINT RightShoulder
				{
					OFFSET -15.141001 14.495407 -7.737500
					CHANNELS 3 Xrotation Yrotation Zrotation
					JOINT RightArm
					{
						OFFSET -9.308998 -2.777710 0.208500
						CHANNELS 3 Xrotation Yrotation Zrotation
						JOINT RightForeArm
						{
							OFFSET -29.972300 0.000000 0.000000
							CHANNELS 3 Xrotation Yrotation Zrotation
							JOINT RightHand
							{
								OFFSET -26.026505 0.000000 0.000000
								CHANNELS 3 Xrotation Yrotation Zrotation
								JOINT RightHandThumb1
								{
									OFFSET -12.240601 -7.148026 9.207092
									CHANNELS 3 Xrotation Yrotation Zrotation
									JOINT RightHandThumb2
									{
										OFFSET -4.138618 -2.389435 2.389433
										CHANNELS 3 Xrotation Yrotation Zrotation
										JOINT RightHandThumb3
										{
											OFFSET -2.726974 -1.574417 1.574421
											CHANNELS 3 Xrotation Yrotation Zrotation
											JOINT RightHandThumb4
											{
												OFFSET -3.941010 -2.275345 2.275343
												CHANNELS 3 Xrotation Yrotation Zrotation
												End Site
												{
													OFFSET 0.005814 5.087799 0.009927
												}
											}
										}
									}
								}
								JOINT RightHandIndex1
								{
									OFFSET -24.424698 -1.985657 5.953444
									CHANNELS 3 Xrotation Yrotation Zrotation
									JOINT RightHandIndex2
									{
										OFFSET -6.426697 0.000000 0.000000
										CHANNELS 3 Xrotation Yrotation Zrotation
										JOINT RightHandIndex3
										{
											OFFSET -5.337898 0.000000 0.000000
											CHANNELS 3 Xrotation Yrotation Zrotation
											JOINT RightHandIndex4
											{
												OFFSET -4.409401 0.000000 0.000000
												CHANNELS 3 Xrotation Yrotation Zrotation
												End Site
												{
													OFFSET 0.000000 4.409363 0.014408
												}
											}
										}
									}
								}
								JOINT RightHandMiddle1
								{
									OFFSET -23.810097 0.000000 0.000000
									CHANNELS 3 Xrotation Yrotation Zrotation
									JOINT RightHandMiddle2
									{
										OFFSET -7.176498 0.000000 0.000000
										CHANNELS 3 Xrotation Yrotation Zrotation
										JOINT RightHandMiddle3
										{
											OFFSET -6.774902 0.000000 0.000000
											CHANNELS 3 Xrotation Yrotation Zrotation
											JOINT RightHandMiddle4
											{
												OFFSET -5.403328 0.000000 0.000000
												CHANNELS 3 Xrotation Yrotation Zrotation
												End Site
												{
													OFFSET 0.027702 5.403244 0.017457
												}
											}
										}
									}
								}
								JOINT RightHandRing1
								{
									OFFSET -22.908302 -0.839325 -6.020576
									CHANNELS 3 Xrotation Yrotation Zrotation
									JOINT RightHandRing2
									{
										OFFSET -6.337502 0.000000 0.000000
										CHANNELS 3 Xrotation Yrotation Zrotation
										JOINT RightHandRing3
										{
											OFFSET -5.779297 0.000000 0.000000
											CHANNELS 3 Xrotation Yrotation Zrotation
											JOINT RightHandRing4
											{
												OFFSET -4.965698 0.000000 0.000000
												CHANNELS 3 Xrotation Yrotation Zrotation
												End Site
												{
													OFFSET 0.000000 4.965668 0.016226
												}
											}
										}
									}
								}
								JOINT RightHandPinky1
								{
									OFFSET -20.037003 -1.530334 -10.950259
									CHANNELS 3 Xrotation Yrotation Zrotation
									JOINT RightHandPinky2
									{
										OFFSET -5.254700 0.000000 0.000000
										CHANNELS 3 Xrotation Yrotation Zrotation
										JOINT RightHandPinky3
										{
											OFFSET -4.810204 0.000000 0.000000
											CHANNELS 3 Xrotation Yrotation Zrotation
											JOINT RightHandPinky4
											{
												OFFSET -3.647202 0.000000 0.000000
												CHANNELS 3 Xrotation Yrotation Zrotation
												End Site
												{
													OFFSET 0.000000 3.647186 0.011917
												}
											}
										}
									}
								}
							}
						}
					}
				}
			}
		}
	}
	JOINT LeftUpLeg
	{
		OFFSET 15.427100 -6.655098 0.678600
		CHANNELS 3 Xrotation Yrotation Zrotation
		JOINT LeftLeg
		{
			OFFSET 4.081073 -39.591068 13.024000
			CHANNELS 3 Xrotation Yrotation Zrotation
			JOINT LeftFoot
			{
				OFFSET -4.081074 -37.707932 -15.979700
				CHANNELS 3 Xrotation Yrotation Zrotation
				JOINT LeftToeBase
				{
					OFFSET 5.346399 -15.068900 20.645000
					CHANNELS 3 Xrotation Yrotation Zrotation
					JOINT LeftToe_End
					{
						OFFSET 2.754700 0.931300 11.300900
						CHANNELS 3 Xrotation Yrotation Zrotation
						End Site
						{
							OFFSET 0.000000 11.669021 0.000000
						}
					}
				}
			}
		}
	}
	JOINT RightUpLeg
	{
		OFFSET -15.569500 -6.655098 0.678600
		CHANNELS 3 Xrotation Yrotation Zrotation
		JOINT RightLeg
		{
			OFFSET -4.081825 -39.591045 13.023800
			CHANNELS 3 Xrotation Yrotation Zrotation
			JOINT RightFoot
			{
				OFFSET 4.081824 -37.707954 -15.979600
				CHANNELS 3 Xrotation Yrotation Zrotation
				JOINT RightToeBase
				{
					OFFSET -5.346400 -15.068900 20.645000
					CHANNELS 3 Xrotation Yrotation Zrotation
					JOINT RightToe_End
					{
						OFFSET -2.754700 0.931300 11.300900
						CHANNELS 3 Xrotation Yrotation Zrotation
						End Site
						{
							OFFSET 0.000000 11.669021 0.000000
						}
					}
				}
			}
		}
	}
}
MOTION
Frames: 6
Frame Time: 0.033333
1.630296 56.755661 9.833002 6.617191 -27.428189 -0.115996 8.922799 13.395869 -4.367654 0.708319 8.030756 -1.698831 0.856695 7.806701 -2.466605 -15.189478 -0.003109 -1.426806 -28.174124 -2.547333 1.352606 -0.000002 0.000000 0.000000 1.580922 -7.050029 10.625110 -102.393852 -64.686194 -92.754905 0.000004 -10.905336 -0.000009 11.515094 -41.149386 20.263904 36.708445 21.276826 -25.687571 -9.221695 45.465383 17.166048 -4.225657 20.763876 9.062589 -0.000000 -0.000005 -0.000003 5.780076 6.792922 -80.770279 7.886748 6.807691 -98.422678 2.370776 5.202201 -48.976425 -0.000001 -0.000000 -0.000002 5.778171 6.792619 -80.754064 7.888655 6.807398 -98.438865 2.370772 5.202199 -48.976421 0.000001 0.000002 0.000001 5.780076 6.792922 -80.770272 7.886750 6.807696 -98.422678 2.370775 5.202193 -48.976428 0.000000 0.000001 -0.000000 9.812894 7.443848 -80.759781 7.882518 2.721716 -98.371738 2.370775 5.202198 -48.976421 0.000001 -0.000001 -0.000002 1.343891 8.780217 -4.325259 -65.811250 64.445430 76.939479 0.000004 24.681467 -0.000006 -109.919921 44.239839 14.497862 24.767436 -13.391399 12.839422 42.036669 -41.686000 18.077619 13.468090 -18.976347 2.733747 0.000001 0.000002 -0.000006 4.248761 -6.404787 67.087641 7.395893 -6.933869 93.703003 2.182773 -5.062352 46.627157 0.000001 0.000002 -0.000003 4.248765 -6.404787 67.087641 7.395898 -6.933870 93.703003 2.182766 -5.062354 46.627150 -0.000003 0.000003 0.000001 4.248757 -6.404787 67.087634 7.395898 -6.933870 93.702996 2.182769 -5.062353 46.627164 -0.000000 0.000001 -0.000002 4.248764 -6.404787 67.087641 7.395906 -6.933879 93.703003 2.182770 -5.062346 46.627161 0.000001 -0.000000 0.000000 -78.311664 -15.962873 13.840656 79.404159 -1.756599 -2.758043 -4.184011 1.215244 -13.075858 0.000004 0.000007 -0.000008 -0.000000 0.000000 0.000000 2.968748 -9.612946 -32.951947 58.728166 1.882298 2.465369 -44.868831 -29.417311 25.724439 -6.984558 -0.000005 0.000007 0.000001 -0.000001 -0.000000 
2.059030 59.196136 10.771483 5.416627 -31.737007 0.048971 8.182730 14.020529 -3.501587 0.523710 8.864066 -0.993823 0.613441 8.718214 -1.825142 -13.837038 -0.605734 -0.902901 -31.756394 -4.662015 0.762698 0.000002 0.000000 0.000000 1.336210 -6.356957 8.548665 -91.970669 -66.620033 -86.874344 0.000004 -10.299900 0.000007 10.037336 -37.564329 20.203117 36.708445 21.276832 -25.687570 -9.221695 45.465383 17.166048 -4.225657 20.763876 9.062590 0.000001 -0.000002 -0.000001 5.780078 6.792930 -80.770272 7.886743 6.807692 -98.422678 2.370775 5.202198 -48.976418 0.000002 0.000002 0.000001 5.778172 6.792627 -80.754064 7.888654 6.807399 -98.438865 2.370773 5.202199 -48.976421 0.000000 0.000003 0.000002 5.780078 6.792930 -80.770272 7.886749 6.807696 -98.422678 2.370776 5.202191 -48.976428 -0.000001 0.000001 -0.000001 9.812895 7.443853 -80.759774 7.882521 2.721719 -98.371738 2.370775 5.202199 -48.976421 0.000002 -0.000001 -0.000001 1.290454 8.410664 -3.917019 -70.919767 68.417192 85.505055 0.000012 23.112090 -0.000013 -108.769827 39.764265 14.131785 24.767434 -13.391396 12.839417 42.036659 -41.685997 18.077624 13.468088 -18.976356 2.733745 -0.000003 -0.000001 -0.000001 4.248755 -6.404783 67.087641 7.395894 -6.933871 93.703003 2.182775 -5.062351 46.627161 -0.000000 0.000000 -0.000005 4.248755 -6.404782 67.087648 7.395898 -6.933875 93.703003 2.182769 -5.062353 46.627150 0.000001 -0.000000 0.000004 4.248754 -6.404785 67.087634 7.395900 -6.933877 93.702996 2.182774 -5.062351 46.627164 -0.000003 0.000003 -0.000001 4.248755 -6.404783 67.087648 7.395906 -6.933882 93.703003 2.182774 -5.062345 46.627164 0.000001 -0.000003 0.000001 -71.288754 -12.807466 18.554888 77.824193 -1.531203 -4.087671 -7.590936 1.418542 -11.617739 -0.000110 0.000003 0.000002 0.000000 -0.000002 -0.000000 0.983345 -7.585798 -34.255530 57.289602 -1.728959 -0.230247 -40.317893 -25.393236 28.180249 -8.817625 -0.000019 0.000003 -0.000000 -0.000001 0.000001 
2.402201 62.249428 11.795882 2.864342 -38.043201 -0.739312 7.482118 14.361297 -2.409830 0.572963 9.519448 -0.055722 0.604404 9.461022 -0.883518 -11.683077 -1.098196 -0.573823 -33.224981 -6.394346 0.037220 0.000002 0.000000 0.000000 1.078185 -5.450710 6.343455 -79.348971 -67.856440 -77.200843 0.000003 -10.234767 0.000005 8.554187 -29.641286 21.040160 36.708442 21.276828 -25.687568 -9.221697 45.465383 17.166048 -4.225658 20.763876 9.062596 0.000002 0.000003 -0.000001 5.780077 6.792925 -80.770272 7.886746 6.807691 -98.422678 2.370776 5.202196 -48.976425 -0.000003 -0.000000 -0.000002 5.778172 6.792621 -80.754071 7.888658 6.807399 -98.438865 2.370771 5.202193 -48.976418 0.000003 0.000000 -0.000002 5.780077 6.792925 -80.770272 7.886745 6.807695 -98.422678 2.370776 5.202193 -48.976425 0.000000 0.000000 -0.000001 9.812894 7.443851 -80.759781 7.882516 2.721716 -98.371738 2.370774 5.202195 -48.976428 -0.000002 0.000002 -0.000000 1.293709 8.446850 -4.142340 -78.572707 72.826134 94.988110 -0.000001 19.925197 -0.000010 -108.334334 33.527766 14.374043 24.767437 -13.391394 12.839419 42.036666 -41.685997 18.077624 13.468091 -18.976345 2.733742 0.000001 -0.000001 -0.000001 4.248757 -6.404783 67.087641 7.395894 -6.933870 93.703003 2.182772 -5.062351 46.627164 -0.000001 0.000000 -0.000006 4.248757 -6.404782 67.087648 7.395898 -6.933871 93.703003 2.182768 -5.062352 46.627154 0.000000 0.000002 -0.000001 4.248755 -6.404784 67.087641 7.395900 -6.933878 93.702996 2.182772 -5.062350 46.627161 0.000002 -0.000001 -0.000003 4.248757 -6.404783 67.087648 7.395906 -6.933879 93.703003 2.182766 -5.062345 46.627157 0.000003 -0.000000 0.000002 -61.616926 -8.545090 24.444057 75.355551 -1.088889 -5.662694 -11.604089 1.857524 -10.957713 -0.000033 0.000002 -0.000001 0.000000 -0.000000 -0.000000 -1.872186 -4.380888 -34.943589 56.071516 -5.678305 -4.492275 -34.202790 -19.865207 30.608417 -11.396857 0.000012 0.000009 -0.000000 -0.000001 -0.000000 
2.597129 65.466248 12.791302 -1.425960 -45.421844 -2.949056 6.935863 14.182915 -1.239286 0.962085 9.713400 0.996580 0.956521 9.727827 0.259807 -8.944937 -1.214798 -0.757561 -32.034106 -6.746762 -0.686108 0.000000 0.000000 -0.000000 0.876205 -4.547399 4.363529 -70.292222 -67.353575 -68.114683 0.000003 -11.289180 -0.000005 6.889019 -17.885180 22.370968 36.708445 21.276826 -25.687571 -9.221695 45.465383 17.166046 -4.225660 20.763878 9.062592 -0.000002 0.000001 -0.000005 5.780075 6.792925 -80.770279 7.886747 6.807693 -98.422678 2.370776 5.202197 -48.976428 0.000003 -0.000000 -0.000002 5.778171 6.792621 -80.754071 7.888656 6.807400 -98.438865 2.370771 5.202198 -48.976421 0.000000 0.000001 -0.000002 5.780077 6.792927 -80.770272 7.886750 6.807697 -98.422678 2.370776 5.202191 -48.976428 0.000001 0.000003 -0.000000 9.812893 7.443849 -80.759781 7.882521 2.721717 -98.371738 2.370776 5.202194 -48.976428 -0.000001 0.000003 -0.000000 1.371576 9.009393 -5.295656 -86.479511 76.941029 101.745763 0.000011 16.556874 -0.000006 -108.634787 27.650583 14.637044 24.767436 -13.391394 12.839418 42.036672 -41.686004 18.077620 13.468088 -18.976349 2.733742 -0.000000 -0.000003 0.000005 4.248760 -6.404784 67.087641 7.395894 -6.933870 93.703003 2.182774 -5.062351 46.627164 -0.000001 -0.000000 0.000001 4.248761 -6.404783 67.087648 7.395899 -6.933873 93.703003 2.182768 -5.062352 46.627154 -0.000001 -0.000000 0.000002 4.248757 -6.404785 67.087634 7.395900 -6.933880 93.702996 2.182775 -5.062351 46.627161 -0.000000 -0.000002 -0.000002 4.248760 -6.404784 67.087648 7.395906 -6.933879 93.703003 2.182769 -5.062344 46.627164 -0.000001 -0.000000 0.000002 -50.749221 -2.836289 29.705582 72.024570 -0.130076 -6.948310 -15.287860 2.575066 -11.421842 -0.000077 0.000003 0.000001 0.000000 0.000002 0.000000 -4.845395 0.199448 -36.441368 54.983907 -6.411607 -6.940217 -25.504860 -13.569673 32.881323 -15.638584 -0.000014 -0.000004 0.000000 -0.000002 0.000001 
2.546660 68.231018 13.398830 -7.376569 -52.118851 -6.751497 6.615292 13.277310 -0.269117 1.649641 9.222318 1.969289 1.640155 9.272167 1.399657 -6.144203 -0.750708 -1.584423 -28.445586 -4.893835 -1.323543 0.000001 0.000000 -0.000000 0.760209 -3.912937 2.929099 -71.286029 -65.295741 -65.695676 0.000002 -14.168881 -0.000001 5.223134 -4.426090 23.108564 36.708445 21.276828 -25.687571 -9.221694 45.465383 17.166046 -4.225658 20.763874 9.062596 0.000000 0.000001 0.000000 5.780074 6.792928 -80.770279 7.886751 6.807693 -98.422671 2.370776 5.202198 -48.976428 0.000000 0.000003 -0.000002 5.778170 6.792624 -80.754071 7.888652 6.807399 -98.438865 2.370771 5.202199 -48.976418 -0.000001 0.000000 -0.000000 5.780074 6.792928 -80.770279 7.886754 6.807696 -98.422678 2.370776 5.202194 -48.976425 -0.000000 -0.000001 -0.000001 9.812890 7.443848 -80.759781 7.882517 2.721716 -98.371738 2.370777 5.202195 -48.976425 0.000001 -0.000001 0.000001 1.561723 10.018866 -7.342860 -89.519669 79.499727 99.679835 -0.000000 15.092729 -0.000003 -109.056667 24.926065 14.340926 24.767436 -13.391395 12.839420 42.036669 -41.685997 18.077620 13.468082 -18.976349 2.733739 -0.000006 -0.000003 -0.000000 4.248758 -6.404783 67.087641 7.395895 -6.933867 93.703003 2.182771 -5.062352 46.627164 -0.000002 0.000001 -0.000001 4.248761 -6.404782 67.087648 7.395900 -6.933873 93.703003 2.182769 -5.062354 46.627150 0.000001 0.000003 -0.000001 4.248756 -6.404784 67.087641 7.395900 -6.933874 93.702996 2.182773 -5.062353 46.627164 0.000001 -0.000001 0.000000 4.248760 -6.404783 67.087648 7.395906 -6.933879 93.703003 2.182772 -5.062345 46.627161 0.000001 -0.000000 0.000001 -40.656377 2.905936 32.718150 68.334916 1.557740 -7.505851 -17.533736 3.518518 -13.143379 0.000000 0.000002 -0.000001 -0.000000 -0.000002 -0.000000 -7.868544 4.192018 -37.011501 54.755489 -5.283368 -8.179310 -16.248581 -10.493150 32.085937 -17.261479 -0.002131 0.475364 -0.000001 -0.000000 0.000001 
2.360322 70.034760 13.530236 -13.756582 -56.324673 -11.443891 6.452947 11.490088 0.435293 2.428613 7.968469 2.649840 2.443372 8.007205 2.283442 -3.952263 0.354540 -2.915179 -23.383347 -0.556116 -1.950738 0.000002 -0.000001 -0.000001 0.721676 -3.693309 2.166716 -82.646949 -62.316160 -70.779181 -0.000001 -19.319303 -0.000001 4.585863 7.834158 22.053480 36.708449 21.276830 -25.687568 -9.221694 45.465380 17.166043 -4.225656 20.763874 9.062591 -0.000002 -0.000001 0.000003 5.780078 6.792924 -80.770272 7.886749 6.807689 -98.422678 2.370775 5.202198 -48.976421 -0.000001 0.000002 0.000000 5.778173 6.792621 -80.754064 7.888654 6.807400 -98.438872 2.370772 5.202199 -48.976418 0.000000 -0.000005 0.000000 5.780078 6.792924 -80.770272 7.886749 6.807694 -98.422678 2.370775 5.202190 -48.976428 -0.000000 -0.000000 0.000001 9.812897 7.443850 -80.759781 7.882516 2.721717 -98.371738 2.370775 5.202194 -48.976425 -0.000000 -0.000001 0.000001 1.884001 11.240060 -9.865267 -84.165286 77.743119 85.545380 -0.000003 17.590288 0.000004 -108.259216 27.289351 13.050904 24.767434 -13.391395 12.839419 42.036669 -41.685997 18.077619 13.468095 -18.976347 2.733744 0.000000 0.000001 -0.000002 4.248761 -6.404783 67.087641 7.395895 -6.933869 93.703003 2.182771 -5.062351 46.627161 -0.000001 -0.000001 -0.000001 4.248761 -6.404782 67.087641 7.395898 -6.933874 93.703003 2.182767 -5.062349 46.627154 0.000001 -0.000000 -0.000002 4.248759 -6.404785 67.087641 7.395899 -6.933877 93.702996 2.182774 -5.062352 46.627161 -0.000001 0.000002 0.000001 4.248761 -6.404783 67.087641 7.395904 -6.933881 93.703003 2.182768 -5.062342 46.627161 -0.000000 0.000003 -0.000001 -33.089244 6.487990 33.149551 65.371720 3.103078 -7.187178 -18.211806 5.097992 -15.159946 -0.000042 0.000003 -0.000002 0.000000 -0.000000 -0.000000 -9.944999 6.521959 -37.650899 55.010685 -5.459242 -8.480952 -8.445420 -8.052321 31.280504 -19.352655 -0.123450 3.605803 0.000001 0.000000 0.000001 
